<svg width="190" height="40" viewBox="0 0 190 40" fill="none" xmlns="http://www.w3.org/2000/svg">
<path d="M189.233 31V31.8H178.713V31H181.073L178.393 25.44H170.313L167.993 31H171.153V31.8H164.313V31H166.993L176.153 9H177.153L187.313 31H189.233ZM170.673 24.6H177.993L174.073 16.44L170.673 24.6Z" fill="white"/>
<path d="M160.703 10.2004H158.703V31.0004H160.703V31.8004H150.703V31.0004H152.703V20.2804H144.823V31.0004H146.823V31.8004H136.823V31.0004H138.823V10.2004H136.823V9.40039H146.823V10.2004H144.823V19.4804H152.703V10.2004H150.703V9.40039H160.703V10.2004Z" fill="white"/>
<path d="M120.684 10.2014V23.2414C122.871 23.2414 124.364 22.7747 125.164 21.8414C125.964 20.8814 126.364 19.2147 126.364 16.8414C126.364 14.468 125.964 12.7747 125.164 11.7614C124.364 10.7214 122.871 10.2014 120.684 10.2014ZM122.684 31.0014V31.8014H112.684V31.0014H114.684V10.2014H112.684V9.40136H120.644C128.484 9.02803 132.404 11.548 132.404 16.9614C132.404 19.3614 131.418 21.188 129.444 22.4414C127.471 23.6947 124.551 24.228 120.684 24.0414V31.0014H122.684Z" fill="white"/>
<path d="M107.903 24.2004H108.703V31.8004H89.9031V31.0004H91.9031V10.2004H89.9031V9.40039H100.303V10.2004H97.9031V31.0004H101.903C102.81 31.0004 103.556 30.9337 104.143 30.8004C104.756 30.6671 105.383 30.3871 106.023 29.9604C107.276 29.1337 107.903 27.2137 107.903 24.2004Z" fill="white"/>
<path d="M85.92 31V31.8H75.4V31H77.76L75.08 25.44H67L64.68 31H67.84V31.8H61V31H63.68L72.84 9H73.84L84 31H85.92ZM67.36 24.6H74.68L70.76 16.44L67.36 24.6Z" fill="white"/>
<path d="M52.8618 20.7846C52.8618 28.9488 46.2435 35.5672 38.0794 35.5672C29.9153 35.5672 23.297 28.9488 23.297 20.7846C23.297 12.6204 29.9153 6.00195 38.0794 6.00195C46.2435 6.00195 52.8618 12.6204 52.8618 20.7846Z" fill="#D7CA25"/>
<path d="M32.3143 12.4304C32.3143 18.5944 27.3175 23.5913 21.1536 23.5913C14.9897 23.5913 9.99289 18.5944 9.99289 12.4304C9.99289 6.26643 14.9897 1.26953 21.1536 1.26953C27.3175 1.26953 32.3143 6.26643 32.3143 12.4304Z" fill="#D7CA25"/>
<path d="M31.2795 28.8386C31.2795 35.0026 26.2827 39.9995 20.1188 39.9995C13.9549 39.9995 8.95813 35.0026 8.95813 28.8386C8.95813 22.6746 13.9549 17.6777 20.1188 17.6777C26.2827 17.6777 31.2795 22.6746 31.2795 28.8386Z" fill="#D7CA25"/>
<path d="M21.2275 21.5946C21.2275 26.6973 17.0911 30.8338 11.9885 30.8338C6.88595 30.8338 2.74951 26.6973 2.74951 21.5946C2.74951 16.492 6.88595 12.3555 11.9885 12.3555C17.0911 12.3555 21.2275 16.492 21.2275 21.5946Z" fill="#D7CA25"/>
<path d="M50.1123 19.5151C50.1123 27.6793 43.494 34.2977 35.3299 34.2977C27.1658 34.2977 20.5475 27.6793 20.5475 19.5151C20.5475 11.3508 27.1658 4.73242 35.3299 4.73242C43.494 4.73242 50.1123 11.3508 50.1123 19.5151Z" fill="white"/>
<path d="M29.5648 11.1609C29.5648 17.3249 24.568 22.3218 18.4041 22.3218C12.2402 22.3218 7.24338 17.3249 7.24338 11.1609C7.24338 4.9969 12.2402 0 18.4041 0C24.568 0 29.5648 4.9969 29.5648 11.1609Z" fill="white"/>
<path d="M28.53 27.5691C28.53 33.7331 23.5332 38.73 17.3693 38.73C11.2054 38.73 6.20859 33.7331 6.20859 27.5691C6.20859 21.4051 11.2054 16.4082 17.3693 16.4082C23.5332 16.4082 28.53 21.4051 28.53 27.5691Z" fill="white"/>
<path d="M18.478 20.3251C18.478 25.4277 14.3415 29.5642 9.23899 29.5642C4.13644 29.5642 0 25.4277 0 20.3251C0 15.2224 4.13644 11.0859 9.23899 11.0859C14.3415 11.0859 18.478 15.2224 18.478 20.3251Z" fill="white"/>
<path d="M30.4888 17.7989L31.3635 15.6122C31.763 14.5108 32.0384 13.7387 32.1895 13.2959C32.3191 12.8964 32.5729 12.6966 32.9508 12.6966H34.8783C35.1374 12.6966 35.267 12.7938 35.267 12.9882C35.267 13.0962 35.2346 13.1988 35.1698 13.2959C34.1656 15.1209 33.5339 16.3033 33.2748 16.8432L31.9142 19.6616C31.6334 20.3203 31.2285 21.1194 30.6994 22.0588C30.7858 24.2833 31.3365 25.3955 32.3515 25.3955C32.751 25.3955 33.0912 25.2659 33.3719 25.0068C33.6311 24.7692 33.9226 24.3481 34.2466 23.7434C34.3006 23.6354 34.3762 23.5814 34.4733 23.5814C34.5921 23.5814 34.7163 23.63 34.8459 23.7272C34.9539 23.8028 35.0079 23.8622 35.0079 23.9053C35.0079 23.9485 34.9971 24.0079 34.9755 24.0835C34.1224 26.3512 33.048 27.485 31.7522 27.485C30.7912 27.485 30.1487 27.2366 29.8248 26.7399C29.5116 26.2972 29.328 25.4765 29.274 24.2779C27.7947 26.5995 25.8672 27.7604 23.4916 27.7604C21.494 27.7604 20.0039 27.1503 19.0212 25.93C18.179 24.8934 17.7578 23.468 17.7578 21.6539C17.7578 19.0515 18.6973 16.773 20.5762 14.8185C22.2499 13.0476 24.1827 12.1621 26.3748 12.1621C29.0851 12.1621 30.4564 14.041 30.4888 17.7989ZM29.0959 20.3905C29.0959 17.4533 28.8529 15.4664 28.367 14.4298C27.9675 13.5983 27.3034 13.1826 26.3748 13.1826C24.9602 13.1826 23.7022 13.9438 22.6008 15.4664C21.9529 16.3627 21.4346 17.4371 21.0459 18.6897C20.6679 19.8776 20.479 21.0168 20.479 22.1074C20.479 25.185 21.494 26.7237 23.524 26.7237C24.6039 26.7237 25.6405 26.1406 26.6339 24.9744C27.5625 23.8838 28.3832 22.3558 29.0959 20.3905Z" fill="#003986"/>
</svg>
