<svg xmlns="http://www.w3.org/2000/svg" xmlns:xlink="http://www.w3.org/1999/xlink" width="218.267" height="42.136" viewBox="0 0 218.267 42.136">
  <defs>
    <clipPath id="clip-path">
      <rect id="長方形_17837" data-name="長方形 17837" width="218.267" height="42.136" fill="#003986"/>
    </clipPath>
  </defs>
  <g id="グループ_24451" data-name="グループ 24451" transform="translate(0 0)">
    <g id="グループ_24450" data-name="グループ 24450" transform="translate(0 0)" clip-path="url(#clip-path)">
      <path id="パス_24294" data-name="パス 24294" d="M47.912,30.749c-9.121,0-15.752-4.556-15.752-12.932S38.75,4.74,47.827,4.74a31.468,31.468,0,0,1,4.6.367c1.647.294,2.154.4,2.323-.073l.169-.442h.929v7.054h-.971l-.507-2.056c-.507-2.021-3.463-3.234-6.673-3.234-6.925,0-9.375,5.73-9.375,10.875,0,6.1,3.336,11.829,10.558,11.829,3,0,5.617-1.028,6.63-3.012l.971-1.874.929.22-1.225,5.181a28.409,28.409,0,0,1-8.277,1.175" transform="translate(21.505 3.07)" fill="#003986"/>
      <path id="パス_24295" data-name="パス 24295" d="M52.38,29.9v-.624l1.56-.367c1.69-.4,1.987-.662,1.987-3.748V9.837c0-3.05-.3-3.344-1.987-3.748l-1.56-.367V5.1h12.8v.624l-1.564.367c-1.69.4-1.984.7-1.984,3.748v15.32c0,3.085.294,3.344,1.984,3.748l1.564.367V29.9Z" transform="translate(35.026 3.409)" fill="#003986"/>
      <path id="パス_24296" data-name="パス 24296" d="M65.437,29.9v-.624L67,28.905c1.689-.4,1.984-.662,1.984-3.748V9.837c0-3.05-.3-3.344-1.984-3.748l-1.564-.367V5.1H85.918v5.033h-.886l-.507-1.654C84.1,7.119,83.173,6.75,78.444,6.75H74.687v9.221h3.8c3.885,0,4.477-.108,4.9-1.4l.464-1.36h.761V20.6h-.761l-.506-1.544c-.424-1.287-.973-1.4-4.858-1.4h-3.8v6.8c0,3.453.506,3.783,2.321,3.783H79.5c4.349,0,5.573-.551,6.418-2.093l.929-1.729.886.185L86.467,29.9Z" transform="translate(43.757 3.409)" fill="#003986"/>
      <path id="パス_24297" data-name="パス 24297" d="M83.708,29.9v-.624l1.562-.367c1.69-.4,1.986-.662,1.986-3.748V9.837c0-3.05-.3-3.344-1.986-3.748l-1.562-.367V5.1h13.64v.624l-2.279.4c-1.774.294-2.111.661-2.111,3.711V24.46c0,3.453.506,3.783,2.321,3.783H97.39c4.35,0,5.7-.514,6.378-2.093l1.1-2.463,1.055.185L104.526,29.9Z" transform="translate(55.974 3.409)" fill="#003986"/>
      <path id="パス_24298" data-name="パス 24298" d="M101.346,29.9v-.624l1.564-.367c1.689-.4,1.984-.662,1.984-3.748V9.837c0-3.05-.3-3.344-1.984-3.748l-1.564-.367V5.1h12.8v.624l-1.562.367c-1.69.4-1.986.7-1.986,3.748v15.32c0,3.085.3,3.344,1.986,3.748l1.562.367V29.9Z" transform="translate(67.768 3.409)" fill="#003986"/>
      <path id="パス_24299" data-name="パス 24299" d="M130.394,30.029V29.4l1.774-.367c1.6-.33,1.9-.808.718-3.748l-1.52-3.785H121.144L120,24.225c-1.562,3.563-1.393,4.409.38,4.812l1.647.367v.624h-9.248V29.4l.97-.33c1.31-.441,1.649-.918,3.167-4.188l8.025-17.231c.549-1.213.549-1.505,0-2.535l.083-.22h5.153l8.741,20.39c1.225,2.94,1.647,3.344,2.957,3.785l.971.33v.624Zm-2.535-17.378a25.864,25.864,0,0,1-1.267-3.563h-.127c-.21.7-.886,2.314-1.52,3.746l-3.04,6.943h8.782Z" transform="translate(75.417 3.277)" fill="#003986"/>
      <path id="パス_24300" data-name="パス 24300" d="M21.069,0A21.067,21.067,0,1,0,42.136,21.068,21.091,21.091,0,0,0,21.069,0m11.692,34.21a20.989,20.989,0,0,1-8.417-.689,13.649,13.649,0,0,0,3.367-3.451,23.35,23.35,0,0,0,8.907-.768,17.674,17.674,0,0,1-3.858,4.908m-9.668,4.34-.072.01c-.267.028-.537.052-.808.068-.067.005-.132.012-.2.015-.219.012-.441.017-.661.018-.1,0-.207.01-.312.01a16.936,16.936,0,0,1-7.15-1.535c-.03-.015-.063-.028-.093-.043-.11-.05-.214-.112-.322-.164a18.266,18.266,0,0,0,3.436-.255,22.749,22.749,0,0,0,4.133-1.337,22.74,22.74,0,0,0,4.1,1.328,18.089,18.089,0,0,0,3.494.264c-.15.072-.3.137-.456.205l.052,0a17.414,17.414,0,0,1-5.143,1.412M5.525,29.318a23.311,23.311,0,0,0,8.836.753,13.1,13.1,0,0,0,3.384,3.449,20.991,20.991,0,0,1-8.362.7,17.692,17.692,0,0,1-3.858-4.9m-2.061-8.25A17.547,17.547,0,0,1,4.125,16.3a20.52,20.52,0,0,1,8.936-1.475,9.538,9.538,0,0,0,.272,6.239,9.538,9.538,0,0,0-.272,6.239,20.5,20.5,0,0,1-8.936-1.477,17.6,17.6,0,0,1-.661-4.762M9.383,7.919a20.991,20.991,0,0,1,8.362.7,13.1,13.1,0,0,0-3.384,3.449,23.32,23.32,0,0,0-8.837.753,17.7,17.7,0,0,1,3.86-4.9m4.375-2.853c.05-.02.1-.043.147-.065l-.012,0c.429-.192.866-.369,1.312-.526l.13-.045c.237-.082.476-.159.718-.23q.15-.045.3-.085c.184-.053.369-.1.554-.147.139-.033.277-.065.416-.1s.3-.06.447-.09c.167-.032.334-.063.5-.09.122-.02.247-.037.369-.053.19-.027.379-.052.571-.072.1-.012.207-.018.31-.028.209-.017.416-.035.626-.047.085,0,.174,0,.26-.008.212-.007.424-.017.639-.017.182,0,.362.01.542.013.132.005.265.005.4.012.2.01.4.028.6.047.105.008.212.015.317.025.234.023.469.057.7.09l.182.025c.254.038.5.085.756.135l.107.022c.255.052.506.11.754.175l.122.03c.229.06.456.125.681.194.108.033.215.07.32.105.145.048.29.1.432.145q.651.233,1.277.514L28.2,5c.147.07.3.133.442.207a18.285,18.285,0,0,0-3.463.255A22.732,22.732,0,0,0,21.045,6.8a22.937,22.937,0,0,0-4.1-1.33A18.381,18.381,0,0,0,13.481,5.2c.093-.045.184-.1.277-.139m22.861,7.768a23.35,23.35,0,0,0-8.907-.768,13.649,13.649,0,0,0-3.367-3.451,21.019,21.019,0,0,1,8.417-.691,17.7,17.7,0,0,1,3.858,4.909M26.612,17.557c0,.033-.005.068-.005.1a14.291,14.291,0,0,0-2.263-2.024q.889-.263,1.806-.444a6.707,6.707,0,0,1,.462,2.365m0,7.022a6.67,6.67,0,0,1-.462,2.365q-.916-.18-1.806-.444a14.291,14.291,0,0,0,2.263-2.024c0,.035.005.068.005.1m-5.053,7.346c-.167.093-.344.179-.516.267-.16-.083-.324-.16-.479-.247a11.879,11.879,0,0,1-3.047-2.426,22.489,22.489,0,0,0,3.528-1.2,22.713,22.713,0,0,0,3.5,1.2,11.956,11.956,0,0,1-2.989,2.41m-6.041-7.391A13.856,13.856,0,0,0,17.745,26.5q-.884.263-1.794.444a6.76,6.76,0,0,1-.432-2.408m.432-9.34q.909.18,1.794.442A13.944,13.944,0,0,0,15.519,17.6a6.76,6.76,0,0,1,.432-2.408m4.614-5c.155-.088.319-.164.479-.247.172.09.349.172.516.269a11.876,11.876,0,0,1,2.989,2.408,22.652,22.652,0,0,0-3.5,1.2,22.43,22.43,0,0,0-3.528-1.2,11.908,11.908,0,0,1,3.047-2.426m.995,7.044a11.044,11.044,0,0,1,4.032,3.833A11.044,11.044,0,0,1,21.559,24.9c-.167.1-.344.179-.516.269-.16-.083-.324-.16-.479-.247a10.728,10.728,0,0,1-4.078-3.855,10.7,10.7,0,0,1,4.078-3.855c.155-.087.319-.164.479-.247.172.09.349.174.516.269m7.482,10.074a9.238,9.238,0,0,0,.427-2.73,9.374,9.374,0,0,0-.7-3.511,9.374,9.374,0,0,0,.7-3.511,9.229,9.229,0,0,0-.427-2.73,20.475,20.475,0,0,1,8.976,1.5,17.494,17.494,0,0,1,0,9.478,20.5,20.5,0,0,1-8.976,1.5" transform="translate(0 0.001)" fill="#003986"/>
    </g>
  </g>
</svg>
