<svg width="24" height="19" viewBox="0 0 24 19" fill="none" xmlns="http://www.w3.org/2000/svg">
<path d="M23.9995 9.43656C23.9995 13.1432 20.9947 16.148 17.2881 16.148C13.5815 16.148 10.5767 13.1432 10.5767 9.43656C10.5767 5.72992 13.5815 2.7251 17.2881 2.7251C20.9947 2.7251 23.9995 5.72992 23.9995 9.43656Z" fill="#003986"/>
<path d="M14.6709 5.64382C14.6709 8.44233 12.4022 10.711 9.60374 10.711C6.80525 10.711 4.53662 8.44233 4.53662 5.64382C4.53662 2.8453 6.80525 0.57666 9.60374 0.57666C12.4022 0.57666 14.6709 2.8453 14.6709 5.64382Z" fill="#003986"/>
<path d="M14.2011 13.094C14.2011 15.8925 11.9325 18.1612 9.13401 18.1612C6.33552 18.1612 4.06689 15.8925 4.06689 13.094C4.06689 10.2955 6.33552 8.02686 9.13401 8.02686C11.9325 8.02686 14.2011 10.2955 14.2011 13.094Z" fill="#003986"/>
<path d="M9.63731 9.80502C9.63731 12.1217 7.75931 13.9997 5.44268 13.9997C3.12605 13.9997 1.24805 12.1217 1.24805 9.80502C1.24805 7.48837 3.12605 5.61035 5.44268 5.61035C7.75931 5.61035 9.63731 7.48837 9.63731 9.80502Z" fill="#003986"/>
<path d="M22.7514 8.8599C22.7514 12.5665 19.7466 15.5714 16.04 15.5714C12.3334 15.5714 9.32861 12.5665 9.32861 8.8599C9.32861 5.15326 12.3334 2.14844 16.04 2.14844C19.7466 2.14844 22.7514 5.15326 22.7514 8.8599Z" fill="#D7CA25"/>
<path d="M13.4228 5.06716C13.4228 7.86567 11.1542 10.1343 8.35569 10.1343C5.5572 10.1343 3.28857 7.86567 3.28857 5.06716C3.28857 2.26864 5.5572 0 8.35569 0C11.1542 0 13.4228 2.26864 13.4228 5.06716Z" fill="#D7CA25"/>
<path d="M12.9531 12.5174C12.9531 15.3159 10.6845 17.5845 7.88596 17.5845C5.08747 17.5845 2.81885 15.3159 2.81885 12.5174C2.81885 9.71884 5.08747 7.4502 7.88596 7.4502C10.6845 7.4502 12.9531 9.71884 12.9531 12.5174Z" fill="#D7CA25"/>
<path d="M8.38926 9.22836C8.38926 11.545 6.51126 13.423 4.19463 13.423C1.878 13.423 0 11.545 0 9.22836C0 6.91171 1.878 5.03369 4.19463 5.03369C6.51126 5.03369 8.38926 6.91171 8.38926 9.22836Z" fill="#D7CA25"/>
</svg>
